<svg xmlns="http://www.w3.org/2000/svg" viewBox="0 0 529 150"><path fill="#525350" d="M529 41.43H152.46v3.24H529z"/><path fill="#f7bc00" d="M202.6 2.53h9.95v29.52h-9.95V21.57h-6.9v10.45h-9.96V2.5h9.95v9.99h6.9zm24.27 21.57h10.7v7.92h-20.39V2.5h20.2v7.91h-10.5v3.21h9.4v7.27h-9.4zm29.11 8.8q-7.1 0-11.67-4.42a15 15 0 0 1-4.6-11.19c0-4.5 1.52-8.27 4.6-11.2 3.05-2.94 6.97-4.4 11.67-4.4q6.27 0 10.6 3.7a15 15 0 0 1 5.12 9.66h-10.02a6.3 6.3 0 0 0-2.17-3.18 5.4 5.4 0 0 0-3.47-1.2 5.4 5.4 0 0 0-4.24 1.85 7 7 0 0 0-1.62 4.8 7 7 0 0 0 1.62 4.77 5.4 5.4 0 0 0 4.24 1.82q2.04-.01 3.6-1.33a6.2 6.2 0 0 0 2-3.47h10.15a15 15 0 0 1-5.09 9.99q-4.36 3.82-10.72 3.8m35.78-30.37h9.95v29.52h-9.95V21.57h-6.9v10.45h-9.96V2.5h9.95v9.99h6.9zm42.29 26.05q-4.62 4.3-12.22 4.31-7.59.01-12.21-4.31-4.63-4.29-4.64-11.29.01-7 4.64-11.29 4.62-4.3 12.21-4.31T334.05 6c3.08 2.86 4.64 6.65 4.64 11.29q-.01 6.98-4.64 11.29m-16.85-6.52a6.2 6.2 0 0 0 4.63 1.82 6.2 6.2 0 0 0 4.64-1.82 6.6 6.6 0 0 0 1.78-4.77q.01-2.97-1.78-4.77a6.2 6.2 0 0 0-4.64-1.82 6.2 6.2 0 0 0-4.63 1.82 6.6 6.6 0 0 0-1.78 4.77 6.6 6.6 0 0 0 1.78 4.77m51.86 9.99-1.27-4.09h-9.4l-1.3 4.09h-10.56L358.3 2.53h9.85l11.83 29.52zm-3.08-10.96-2.86-8.15-2.85 8.15zm61.74 10.96h-9.79l-1.72-14.89-6.87 14.89h-3.37l-6.87-14.89-1.65 14.89h-9.86l4.35-29.52h9.69l6.03 14.2 6.06-14.2h9.69zm22.88 0-1.26-4.09h-9.4l-1.3 4.09h-10.57l11.77-29.52h9.85l11.83 29.52zm-3.08-10.96-2.85-8.15-2.85 8.15zm34.29-18.56h9.37v29.52h-8L472.76 18.1v13.95h-9.37V2.53h8.3L481.8 15.9zm41.71 26.05q-4.62 4.3-12.22 4.31-7.59.01-12.21-4.31-4.63-4.29-4.64-11.29.01-7 4.64-11.29 4.62-4.3 12.21-4.31T523.52 6c3.08 2.86 4.64 6.65 4.64 11.29q-.01 6.98-4.64 11.29m-16.85-6.52a6.2 6.2 0 0 0 4.63 1.82 6.2 6.2 0 0 0 4.64-1.82 6.6 6.6 0 0 0 1.78-4.77q.01-2.97-1.78-4.77a6.2 6.2 0 0 0-4.64-1.82 6.2 6.2 0 0 0-4.63 1.82 6.6 6.6 0 0 0-1.78 4.77 6.6 6.6 0 0 0 1.78 4.77"/><path fill="#525350" d="m242.66 114.54 4.53-22.7h3.57l-4.54 22.7zm8.94 0 4.76-23.77h3.44l-4.76 23.77zm8.65 0 4.77-23.77h3.43l-4.76 23.77zm16.5.43q-3.11 0-4.96-1.7a6 6 0 0 1-1.88-4.53v-.4l.03-.38.07-.49.1-.61.16-.85c.06-.35.16-.71.2-1.07l.29-1.4.35-1.71.46-2.18q.28-1.33.51-2.62h3.44q-.3 1.3-.55 2.66c-.16.87-.33 1.59-.42 2.17l-.33 1.72q-.18.82-.26 1.36l-.19 1q-.12.5-.13.79l-.1.55q-.05.24-.06.39v.58q0 1.65.94 2.56.92.92 2.69.91 2.11 0 3.56-1.36a7 7 0 0 0 1.95-3.67l1.88-9.63h3.43l-2.07 10.31a9.5 9.5 0 0 1-3.11 5.58 9.2 9.2 0 0 1-6 2.02m18.41 0a7 7 0 0 1-4.47-1.33 4.3 4.3 0 0 1-1.72-3.57q0-.54.1-1.07h3.33q-.05.34-.06.55-.01 1.11 1 1.75a4.3 4.3 0 0 0 2.37.62 5.3 5.3 0 0 0 2.92-.78q1.19-.79 1.2-2.01 0-.54-.3-.88a2 2 0 0 0-.87-.58 9 9 0 0 0-2.56-.68q-.98-.19-1.56-.33a10 10 0 0 1-1.42-.45q-.82-.31-1.3-.72a5 5 0 0 1-.8-1.07 3.4 3.4 0 0 1-.33-1.55q0-1.9 1.03-3.38a6 6 0 0 1 2.8-2.17 10 10 0 0 1 3.85-.75q2.66 0 4.28 1.27a4 4 0 0 1 1.65 3.34q0 .44-.1.97h-3.24q.06-.35.07-.52 0-.52-.23-.94-.24-.44-.68-.68t-1-.39c-.4-.1-.78-.13-1.24-.13q-1.69 0-2.75.72-1.07.72-1.07 1.84.01.48.26.82t.84.55l1.07.35q.49.11 1.43.26.96.15 1.55.3c.4.1.88.22 1.43.45s1 .45 1.33.75q.49.4.84 1.1.35.68.36 1.62 0 2.1-1.07 3.6a6.5 6.5 0 0 1-2.92 2.3c-1.1.56-2.5.82-4.02.82m23.24-14.83h-5.28l-.75 3.73q-.91 4.6-.9 5.03-.01 1.22.7 1.85.75.62 2.11.61h2.08l-.65 3.22h-2.37q-2.52 0-3.98-1.3a4.5 4.5 0 0 1-1.46-3.57v-.3q0-.14.06-.38l.07-.42.1-.65q.06-.46.16-.84c.03-.26.13-.65.22-1.17l.3-1.5.38-1.9.49-2.41h-3.14l.16-.68 7.29-6.49h.58l-.8 4.06h5.28zm12.6-3.21h1.56l-.68 3.24h-1.85q-2.18 0-3.53 1.17a6.5 6.5 0 0 0-1.94 3.37l-1.98 9.83h-3.44l3.5-17.51h2.37l.06 2.36a8 8 0 0 1 5.94-2.46m18.92.1h2.7l-3.5 17.51h-2.73l.1-2.07a10.2 10.2 0 0 1-6.74 2.5 7.4 7.4 0 0 1-7.68-7.63 10.7 10.7 0 0 1 5.34-9.28 10.4 10.4 0 0 1 5.38-1.46q2-.01 3.6.82a7 7 0 0 1 2.56 2.17zm-9.53 14.66q2.82-.01 4.96-2.2a7 7 0 0 0 2.14-5.1q0-2.05-1.33-3.28a5 5 0 0 0-3.5-1.23q-1.85 0-3.5 1a7.4 7.4 0 0 0-2.59 2.7 7 7 0 0 0-.97 3.57q0 1.32.58 2.37.57 1.03 1.69 1.62 1.12.54 2.52.55m32.32-20.92h3.43l-4.76 23.77h-2.56l-.07-1.94a10 10 0 0 1-6.54 2.37 8 8 0 0 1-3.92-.98 7 7 0 0 1-2.7-2.72 8 8 0 0 1-.93-3.93 10.6 10.6 0 0 1 6.57-9.83q2-.87 4.19-.87 3.58 0 5.67 2.4zm-9.73 20.85a6.6 6.6 0 0 0 4.93-2.17 7 7 0 0 0 2.1-5q0-2.05-1.32-3.27a5 5 0 0 0-3.5-1.23q-1.85-.01-3.47 1a8 8 0 0 0-2.62 2.7 7 7 0 0 0-.98 3.5q.01 2.01 1.33 3.24a5 5 0 0 0 3.53 1.23m31.73-14.59h2.7l-3.5 17.51h-2.73l.1-2.07a10.2 10.2 0 0 1-6.74 2.5 7.4 7.4 0 0 1-7.68-7.63 10.7 10.7 0 0 1 5.34-9.28 10.4 10.4 0 0 1 5.38-1.46q2-.01 3.6.82a7 7 0 0 1 2.56 2.17zm-9.52 14.66q2.82-.01 4.95-2.2a7 7 0 0 0 2.14-5.1q0-2.05-1.33-3.28a5 5 0 0 0-3.5-1.23q-1.85 0-3.5 1a7.4 7.4 0 0 0-2.59 2.7 7 7 0 0 0-.97 3.57q0 1.32.58 2.37.58 1.03 1.69 1.62 1.12.54 2.53.55m40.22-4.7h-14.4q-.04.22-.03.45 0 2.05 1.2 3.18a4.7 4.7 0 0 0 3.34 1.13 6.8 6.8 0 0 0 5.45-2.69h3.79a12 12 0 0 1-4.05 4.35 10 10 0 0 1-5.42 1.56 7.4 7.4 0 0 1-7.62-7.62c0-1.92.46-3.67 1.4-5.33.94-1.65 2.2-2.95 3.86-3.92q2.43-1.49 5.35-1.5a7.2 7.2 0 0 1 5.47 2.18 7.6 7.6 0 0 1 2.08 5.48 10 10 0 0 1-.42 2.73m-7.33-7.27q-2.11-.02-3.82 1.23a7.4 7.4 0 0 0-2.53 3.18h10.86a4.4 4.4 0 0 0-1.27-3.21 4.4 4.4 0 0 0-3.24-1.2m28.04-8.95h3.43l-4.76 23.77h-2.56l-.07-1.94a10 10 0 0 1-6.54 2.37 8 8 0 0 1-3.93-.98 7 7 0 0 1-2.69-2.72 8 8 0 0 1-.94-3.93 10.6 10.6 0 0 1 6.58-9.83q2-.87 4.18-.87 3.59 0 5.68 2.4zm-9.73 20.85a6.6 6.6 0 0 0 4.93-2.17 7 7 0 0 0 2.1-5q0-2.05-1.32-3.27a5 5 0 0 0-3.5-1.23q-1.85-.01-3.47 1a8 8 0 0 0-2.63 2.7 7 7 0 0 0-.97 3.5q.01 2.01 1.33 3.24a5 5 0 0 0 3.53 1.23m13.62 2.92 3.5-17.51h3.43l-3.5 17.51zm3.85-20.3.75-3.6h3.63l-.71 3.6zm16.6-1.3q-1.5 0-2.34.68-.79.68-1.1 2.24l-.26 1.36h5.12l-.58 2.86h-5.02l-2.89 14.5h-3.43l2.88-14.5h-3.3l.55-2.86h3.33l.33-1.59a7 7 0 0 1 2.14-4.09q1.6-1.36 4.4-1.36h2.95l-.55 2.8h-2.23zm1 21.6 3.5-17.51h3.44l-3.5 17.51zm3.86-20.3.74-3.6h3.63l-.7 3.6zm12.77 20.73a7.3 7.3 0 0 1-5.54-2.18 7.5 7.5 0 0 1-2.14-5.51q0-2.84 1.46-5.29a10.7 10.7 0 0 1 3.95-3.93 10.5 10.5 0 0 1 5.38-1.46q3.16.01 5.25 1.82a6.8 6.8 0 0 1 2.27 4.8h-3.37a5 5 0 0 0-.9-1.81q-.63-.75-1.53-1.14a5 5 0 0 0-2.08-.39q-2.72 0-4.83 2.24a7.3 7.3 0 0 0-2.1 5.1q0 1.98 1.26 3.24a4.4 4.4 0 0 0 3.24 1.23 7 7 0 0 0 2.27-.39 6 6 0 0 0 2.01-1.2 9 9 0 0 0 1.65-1.85h3.54a11 11 0 0 1-3.92 4.9 10.3 10.3 0 0 1-5.87 1.82m12.02-.43 3.5-17.51h3.44l-3.5 17.51zm3.86-20.3.74-3.6h3.63l-.7 3.6zm12.96 20.73q-3.51 0-5.67-2.18a7.4 7.4 0 0 1-2.2-5.51q0-2.87 1.46-5.36 1.46-2.47 3.98-3.92 2.52-1.46 5.48-1.46 1.75 0 3.24.58 1.47.58 2.5 1.6 1.03 1.01 1.62 2.43.58 1.42.58 3.05 0 2.87-1.49 5.35a10.4 10.4 0 0 1-3.99 3.9 10.4 10.4 0 0 1-5.5 1.52m.4-3.28a7 7 0 0 0 6.1-3.7q.91-1.7.93-3.6 0-2.05-1.3-3.28a5 5 0 0 0-3.47-1.23q-2.9-.01-4.99 2.17a7 7 0 0 0-2.07 5.13q-.01 2.05 1.3 3.28c.9.8 2.03 1.23 3.5 1.23M348.38 125.8q3.41 0 5.5 2.14a7.5 7.5 0 0 1 2.11 5.48q-.01 2.86-1.39 5.32a10.3 10.3 0 0 1-3.89 3.93 10.4 10.4 0 0 1-5.35 1.46 7.2 7.2 0 0 1-5.8-2.53l-1.68 8.37h-3.44l4.77-23.78h2.33l.16 2.17a10.2 10.2 0 0 1 6.68-2.56m-3.05 15.08q2.86 0 5-2.2a7 7 0 0 0 2.16-5.1c0-1.32-.42-2.43-1.3-3.24q-1.3-1.22-3.43-1.23-2.86.01-4.99 2.2a7 7 0 0 0-2.14 5.13q-.01 2.01 1.3 3.24 1.26 1.19 3.4 1.2m20.84 3.28q-3.51.01-5.67-2.17a7.4 7.4 0 0 1-2.2-5.52q0-2.87 1.45-5.35 1.46-2.47 3.99-3.92 2.52-1.47 5.48-1.46 1.73 0 3.24.58 1.46.57 2.5 1.59 1.02 1.03 1.61 2.43.6 1.43.59 3.05 0 2.88-1.5 5.35a10.4 10.4 0 0 1-3.98 3.9 10.4 10.4 0 0 1-5.5 1.52m.39-3.28q1.9.01 3.53-1a7.5 7.5 0 0 0 3.5-6.3q.01-2.05-1.3-3.27-1.29-1.22-3.46-1.23-2.91-.01-5 2.17a7 7 0 0 0-2.07 5.13q-.01 2.05 1.3 3.27 1.35 1.22 3.5 1.23M391 126.12h1.55l-.68 3.25h-1.84q-2.18 0-3.54 1.17a6.5 6.5 0 0 0-1.94 3.37l-1.98 9.83h-3.43l3.5-17.52H385l.07 2.37a8 8 0 0 1 5.93-2.47m26.48 10.06h-14.4q-.04.23-.03.46 0 2.05 1.2 3.17a4.7 4.7 0 0 0 3.34 1.14 6.8 6.8 0 0 0 5.45-2.7h3.79a12 12 0 0 1-4.05 4.35 10 10 0 0 1-5.42 1.56 7.4 7.4 0 0 1-7.62-7.62q0-2.86 1.4-5.32a10.4 10.4 0 0 1 3.86-3.93q2.43-1.47 5.35-1.49a7.2 7.2 0 0 1 5.47 2.17 7.6 7.6 0 0 1 2.08 5.49 10 10 0 0 1-.42 2.72m-7.33-7.27q-2.11-.01-3.82 1.24a7.4 7.4 0 0 0-2.53 3.18h10.86a4.4 4.4 0 0 0-1.27-3.22 4.4 4.4 0 0 0-3.24-1.2m28.04-8.95h3.43l-4.76 23.78h-2.56l-.07-1.95a10 10 0 0 1-6.54 2.37 8 8 0 0 1-3.93-.97 7 7 0 0 1-2.69-2.73 8 8 0 0 1-.94-3.92 10.6 10.6 0 0 1 6.58-9.83 10 10 0 0 1 4.18-.88q3.59 0 5.68 2.4zm-9.73 20.86a6.6 6.6 0 0 0 4.93-2.17 7 7 0 0 0 2.1-5q0-2.04-1.32-3.28a5 5 0 0 0-3.5-1.23q-1.85 0-3.47 1a8 8 0 0 0-2.63 2.7 7 7 0 0 0-.97 3.5q.01 2.02 1.33 3.25a5 5 0 0 0 3.53 1.23m13.62 2.92 3.5-17.52H449l-3.5 17.52zm3.85-20.3.75-3.6h3.63l-.72 3.6zm16.6-1.31q-1.5 0-2.34.69-.79.68-1.1 2.23l-.26 1.37h5.12l-.58 2.85h-5.02l-2.89 14.5h-3.43l2.88-14.5h-3.3l.55-2.85h3.33l.33-1.6a7 7 0 0 1 2.14-4.08q1.6-1.36 4.4-1.36h2.95l-.55 2.79h-2.23zm1 21.61 3.5-17.52h3.44l-3.5 17.52zm3.86-20.3.74-3.6h3.63l-.71 3.6zm12.77 20.72a7.3 7.3 0 0 1-5.54-2.17 7.5 7.5 0 0 1-2.14-5.52q0-2.81 1.45-5.28a10.7 10.7 0 0 1 3.96-3.93 10.5 10.5 0 0 1 5.38-1.46q3.16.01 5.25 1.82a6.8 6.8 0 0 1 2.27 4.8h-3.37a5 5 0 0 0-.9-1.82q-.63-.74-1.53-1.13a5 5 0 0 0-2.08-.4q-2.72 0-4.83 2.25a7.3 7.3 0 0 0-2.1 5.09q0 1.99 1.26 3.24a4.4 4.4 0 0 0 3.24 1.23 7 7 0 0 0 2.27-.38 6 6 0 0 0 2.01-1.2 9 9 0 0 0 1.65-1.85h3.54a11 11 0 0 1-3.93 4.9 10.3 10.3 0 0 1-5.86 1.81m12.02-.42 3.5-17.52h3.44l-3.5 17.52zm3.86-20.3.74-3.6h3.63l-.7 3.6zM509 144.16q-3.51.01-5.67-2.17a7.4 7.4 0 0 1-2.2-5.52q0-2.87 1.46-5.35t3.98-3.92q2.52-1.47 5.48-1.46 1.75 0 3.24.58 1.47.57 2.5 1.59 1.03 1.03 1.62 2.43.58 1.43.58 3.05 0 2.88-1.5 5.35a10.4 10.4 0 0 1-3.98 3.9 10.4 10.4 0 0 1-5.5 1.52m.4-3.28a7 7 0 0 0 6.1-3.7q.91-1.7.93-3.6 0-2.05-1.3-3.27a5 5 0 0 0-3.47-1.23q-2.9-.01-5 2.17a7 7 0 0 0-2.06 5.13q-.01 2.05 1.3 3.27c.9.81 2.03 1.23 3.5 1.23m12.27 2.86.77-4h3.8l-.78 4zM288.29 56.35h8.78l-4.3 21.57h-5.65l3.37-16.9h-3.1zm17.5 22.09q-3.45-.01-5.44-2.3-2-2.32-2.01-6.2a17 17 0 0 1 2-8.2q.99-1.77 2.37-3.09a10.3 10.3 0 0 1 7.16-2.82q3.53.01 5.48 2.3 2 2.32 2.01 6.2 0 2.82-.8 5.35a15 15 0 0 1-2.28 4.48 10.9 10.9 0 0 1-8.49 4.28m.84-5.1q1.17.01 2.17-.8a6 6 0 0 0 1.63-2.15c.42-.87.7-1.81.94-2.82q.33-1.5.32-2.92 0-1.8-.68-2.72a2.3 2.3 0 0 0-1.98-.98q-1.55 0-2.75 1.46-1.22 1.47-1.75 3.38-.55 1.95-.55 3.89a6 6 0 0 0 .29 2.01q.3.81.87 1.23.6.44 1.5.43m20.35 5.09q-3.45-.01-5.45-2.3-2-2.32-2-6.2a17 17 0 0 1 2-8.2q.99-1.77 2.37-3.09a10.3 10.3 0 0 1 7.16-2.82q3.51.01 5.48 2.3 2 2.32 2 6.2.01 2.82-.8 5.35a15 15 0 0 1-2.27 4.48 10.9 10.9 0 0 1-8.5 4.28m.84-5.1q1.17.01 2.17-.8a6 6 0 0 0 1.62-2.15q.61-1.3.94-2.82.34-1.5.33-2.92 0-1.8-.69-2.72a2.3 2.3 0 0 0-1.97-.98q-1.55 0-2.76 1.46-1.2 1.47-1.75 3.38-.54 1.95-.55 3.89a6 6 0 0 0 .3 2.01q.29.81.87 1.23.6.44 1.49.43m19.1-7.43a5 5 0 0 1-3.7-1.37 4.6 4.6 0 0 1-1.42-3.43c0-1.92.68-3.5 2.07-4.84a7 7 0 0 1 5.06-1.98 5 5 0 0 1 3.7 1.37q1.45 1.34 1.45 3.47a6.3 6.3 0 0 1-2.1 4.83 7.2 7.2 0 0 1-5.06 1.95m-4.54 12.13 18.35-22.87h5.77l-18.35 22.87zm5.22-16.25q.84 0 1.43-.62c.38-.39.61-.88.61-1.5q-.01-.58-.35-.93a1.5 1.5 0 0 0-1.01-.36q-.83 0-1.46.58-.62.6-.61 1.46 0 .6.39.95.37.43 1 .42m12.93 16.44a5 5 0 0 1-3.7-1.36 4.6 4.6 0 0 1-1.42-3.44q0-1.88.94-3.47a6.6 6.6 0 0 1 2.6-2.46q1.65-.9 3.62-.91a5 5 0 0 1 3.7 1.36q1.41 1.35 1.42 3.44 0 2.86-2.07 4.87a7 7 0 0 1-5.09 1.97m.68-4.12q.55-.01 1.04-.26.47-.27.74-.77a2 2 0 0 0 .26-1.07q0-.25-.1-.5a1 1 0 0 0-.25-.38q-.18-.16-.46-.26-.24-.1-.58-.1-.83 0-1.46.59a2 2 0 0 0-.61 1.46q.01.59.35.94c.3.22.62.35 1.07.35M394.1 60.4h4.45l-3.5 17.52h-4.15l-.3-1.33a9.6 9.6 0 0 1-5.76 1.88 7.6 7.6 0 0 1-5.54-2.17q-2.18-2.14-2.17-5.68a10.8 10.8 0 0 1 5.31-9.4q2.44-1.38 5.22-1.4 3.3 0 5.35 2.24zm-7.74 12.85q1.92 0 3.34-1.5 1.46-1.48 1.46-3.46a3.2 3.2 0 0 0-.94-2.37 3.4 3.4 0 0 0-2.43-.88q-1.96 0-3.37 1.5a5 5 0 0 0-1.43 3.46c0 .5.1.91.26 1.33a3 3 0 0 0 1.72 1.7q.62.2 1.4.22m21.29 5.22a7.76 7.76 0 0 1-8.07-7.95c0-3.01 1.07-5.58 3.2-7.62a11 11 0 0 1 7.91-3.08q3.55 0 5.74 2.2a7.3 7.3 0 0 1 2.17 5.49h-5.7a3 3 0 0 0-1-1.76 3.3 3.3 0 0 0-1.99-.64q-1.88.02-3.17 1.49-1.32 1.5-1.27 3.5 0 1.43.81 2.27.83.84 2.18.85.83 0 1.55-.3t1.36-.9q.62-.6 1.04-1.43h5.7a11 11 0 0 1-3.92 5.8 11 11 0 0 1-6.54 2.08m20.06 0a9 9 0 0 1-3.9-.84 6 6 0 0 1-2.55-2.37q-.87-1.51-.88-3.47v-.4c0-.12.04-.25.04-.38q0-.2.06-.52l.1-.58.13-.85.2-1 .25-1.36.33-1.66.42-2.1q.25-1.32.52-2.54h5.8q-.46 2.39-1.1 5.58a67 67 0 0 0-.95 5.22q0 2 2.24 2.02 1.26.01 2.17-.95c.62-.61 1-1.42 1.23-2.43l1.92-9.47h5.8l-2.08 10.41a9 9 0 0 1-3.33 5.65 10 10 0 0 1-6.42 2.04m29.65-18.07h4.44l-3.5 17.52h-4.15l-.29-1.33a9.6 9.6 0 0 1-5.77 1.88 7.6 7.6 0 0 1-5.54-2.17q-2.18-2.14-2.17-5.68a10.8 10.8 0 0 1 5.32-9.4q2.44-1.38 5.21-1.4 3.3 0 5.35 2.24zm-7.74 12.85q1.91 0 3.34-1.5 1.45-1.48 1.45-3.46a3.2 3.2 0 0 0-.94-2.37 3.4 3.4 0 0 0-2.43-.88q-1.96 0-3.37 1.5a5 5 0 0 0-1.42 3.46c0 .5.1.91.26 1.33a3 3 0 0 0 1.71 1.7q.63.2 1.4.22m25.63-12.95h1.72l-1.07 5.36h-2.3q-1.61-.01-2.5.71t-1.23 2.3l-1.84 9.25h-5.8l3.5-17.52h3.82l.49 1.82a7.6 7.6 0 0 1 5.21-1.92m20.04 7.24q-.01 1.34-.46 3.05h-13.1q0 .78.2 1.36t.65.97q.43.4 1 .59.6.2 1.36.2 2.29-.02 3.54-1.73h5.86a10.3 10.3 0 0 1-4.05 4.77 11.3 11.3 0 0 1-6.12 1.72q-3.47.01-5.68-2.27a8 8 0 0 1-2.2-5.64q.01-4.59 3.08-7.66a10.6 10.6 0 0 1 7.78-3.08q3.63 0 5.86 2.2a7.4 7.4 0 0 1 2.27 5.52m-8.7-3.08a4 4 0 0 0-2.42.78 6 6 0 0 0-1.69 2h7.36q-.38-2.77-3.24-2.78m9.63 13.46L501 54.08h5.8l-4.77 23.84zm27.26-17.52h4.44l-3.5 17.52h-4.15l-.29-1.33a9.6 9.6 0 0 1-5.77 1.88 7.6 7.6 0 0 1-5.54-2.17q-2.18-2.14-2.17-5.68a10.8 10.8 0 0 1 5.31-9.4q2.44-1.38 5.22-1.4 3.3 0 5.35 2.24zm-7.75 12.85q1.92 0 3.34-1.5 1.46-1.48 1.46-3.46a3.2 3.2 0 0 0-.94-2.37 3.4 3.4 0 0 0-2.43-.88q-1.95 0-3.37 1.5a5 5 0 0 0-1.43 3.46c0 .5.1.91.26 1.33a3 3 0 0 0 1.72 1.7q.63.2 1.4.22"/><path fill="#f7bc00" d="M96 81.23c-2.33 2.6-2.95 4.5-6 9.4a27 27 0 0 1 8.43 10.29c5.28-3.08 7.78-3.54 10.57-5.94 18.24-15.63 63-71.75 61.48-73.38-1.62-1.75-58.4 41.69-74.48 59.63M84.75 95.05c-7.94-1.43-15.78 3.66-21 16.41-5.25 12.75-14.58 17.84-16.4 17.55 9.76 3.6 39.48 12.78 46.87-22.15-3.11-8.44-9.47-11.81-9.47-11.81"/><path fill="#f7bc00" d="M150.77 28.8c-8.59-7.33-21.16-11.45-38.14-12.61-11.12-.75-20.07-.33-28.14 1.36-8.49 1.75-22.2 5.9-43.23 21.54a409 409 0 0 0-13.39 10.54A305 305 0 0 1 10.82 62.8c-.7.52-1.52.98-2.4 1.5-2.75 1.62-6.15 3.6-7.64 7.68C-.75 76.13-.3 83.8 4.3 90.73a24.7 24.7 0 0 0 20.2 10.93h.58c5.12-.12 9.75-1.84 14.26-3.53l3.63-1.33c13.19-4.51 27.38-4.77 41.58-4.06q.03-.52.13-1.07a15 15 0 0 1 2.46-5.77c-15.59-.9-31.34-.84-46.35 4.28q-1.94.68-3.82 1.4c-4.15 1.55-8.07 3.01-12.06 3.11a17.7 17.7 0 0 1-14.9-7.82c-2.27-3.44-4-9.18-2.8-12.42.6-1.62 2.15-2.6 4.64-4.06q1.42-.81 2.89-1.78a331 331 0 0 0 17.43-13.46c4.28-3.47 8.72-7.04 13.16-10.38 19.93-14.83 32.7-18.69 40.55-20.34 7.45-1.56 15.81-1.95 26.31-1.24 14.33.98 25.02 4.16 32.48 9.64 2-1.4 4.05-2.7 6.1-4.02m5.19 21.18a30.7 30.7 0 0 1-1.04 17.16 31.6 31.6 0 0 1-20.87 19.24 43 43 0 0 1-8.72 1.36c-2.85 2.37-5.7 4.77-8.65 7 6.22.2 12.8.14 19.18-1.65a38.6 38.6 0 0 0 25.48-23.55c2.91-7.98 2.88-17 .2-24.98a44 44 0 0 1-5.58 5.42"/><path fill="#f7bc00" d="M56.91 31.82c-3.5-11-1.03-19.04 1.66-23.84 2.88-5.16 6.57-7.72 6.96-8.01l1.88 2.92 1.92 2.92c-.46.32-11 7.81-5.9 23.87z"/></svg>