<svg xmlns="http://www.w3.org/2000/svg" viewBox="0 0 103.9 42.14"><path fill="#ffa214" d="M9.41 42.14a9.2 9.2 0 0 1-6.79-2.64A9 9 0 0 1 0 32.85a12.6 12.6 0 0 1 6.5-11.18q3-1.68 6.62-1.67 3.95 0 6.61 2.58a8 8 0 0 1 2.53 6.32h-5.67a5 5 0 0 0-.74-1.93 4 4 0 0 0-1.45-1.27 4.4 4.4 0 0 0-2.04-.45 6 6 0 0 0-4.65 2.17 7.3 7.3 0 0 0-1.93 5.01q0 1.33.54 2.34t1.55 1.57 2.34.56q1.87 0 3.38-1.07a6.4 6.4 0 0 0 2.26-2.88h5.7a12.8 12.8 0 0 1-4.6 6.82 12.4 12.4 0 0 1-7.54 2.37m29.36-16.8h4.13l-3.26 16.29h-3.86l-.27-1.24a9 9 0 0 1-5.37 1.75A7 7 0 0 1 25 40.13a7 7 0 0 1-2.04-5.26 10 10 0 0 1 4.97-8.77 9.7 9.7 0 0 1 4.87-1.28q3.07 0 4.98 2.08zm-7.21 11.95q1.79 0 3.12-1.39a4.5 4.5 0 0 0 1.34-3.23q0-1.35-.87-2.19a3.2 3.2 0 0 0-2.26-.83q-1.82 0-3.12 1.37t-1.31 3.24q0 .66.23 1.24.23.57.62.95.4.38.98.6.57.24 1.27.24m18.01 4.85a7.2 7.2 0 0 1-4.53-1.33 4.2 4.2 0 0 1-1.72-3.53q0-.5.09-1.03h5.16l-.03.42q0 .66.47 1.03a2 2 0 0 0 1.25.36q.78 0 1.39-.41t.6-1.13a.8.8 0 0 0-.18-.54 1.5 1.5 0 0 0-.6-.38 7 7 0 0 0-1.81-.47l-.83-.18a15 15 0 0 1-1.67-.5l-.74-.36a2 2 0 0 1-.68-.5 7 7 0 0 1-.5-.63 2 2 0 0 1-.36-.83 5 5 0 0 1-.11-1.01q0-2.98 2.17-4.65 2.18-1.66 5.61-1.66 2.75 0 4.4 1.31a4.1 4.1 0 0 1 1.57 4.17h-5.04l.03-.3q0-1.27-1.57-1.27-.81 0-1.36.39-.54.39-.54 1.06 0 .3.17.53.16.23.63.39.47.17.78.24a32 32 0 0 0 2.05.43l.95.24a5 5 0 0 1 1.75.85q.45.32.69.68a4 4 0 0 1 .6 2.05 6 6 0 0 1-1.09 3.56 6.4 6.4 0 0 1-2.91 2.25q-1.8.76-4.09.75m22.65-12.27h-4.13q-1.03 5.01-1.03 5.34 0 1.57 1.84 1.57h1.96l-.97 4.86h-3.05a5.6 5.6 0 0 1-3.94-1.33 4.7 4.7 0 0 1-1.43-3.62q0-.78.84-4.98.24-1.15.36-1.84h-3.05l.24-1.24 8.87-8.05h1.12l-.94 4.77h4.19zm12.55-4.62h1.6l-1 4.98h-2.14q-1.51 0-2.32.66a3.7 3.7 0 0 0-1.15 2.14l-1.72 8.6h-5.4l3.26-16.29h3.56l.45 1.69a7 7 0 0 1 4.86-1.78m8.84 16.89a8 8 0 0 1-5.64-2.08 7 7 0 0 1-2.23-5.34q0-2.77 1.37-5.05a10 10 0 0 1 3.73-3.58q2.36-1.3 5.19-1.3 3.4 0 5.64 2.08a7 7 0 0 1 2.23 5.37 9.6 9.6 0 0 1-5.11 8.61 10.6 10.6 0 0 1-5.18 1.29m.48-4.88q1.84 0 3.11-1.37a4.7 4.7 0 0 0 1.27-3.27q0-1.32-.8-2.11a3 3 0 0 0-2.13-.78q-1.88 0-3.12 1.37t-1.25 3.24q0 .88.35 1.54t1.01 1.03q.66.35 1.56.35"/><path fill="#f4f4f2" d="M24.64 17.79h-2.97L19.59 4.91l-5.77 12.6h-.74L7.29 4.91 5.21 17.79H2.24L5.14 0h2.87l5.44 12.09L18.89 0h2.9zM40.29 4.07h2.19v13.72h-2.29l-.28-1.68a6.7 6.7 0 0 1-4.95 2.01 7.03 7.03 0 0 1-7.17-7.21q0-3.09 2.05-5.13a7 7 0 0 1 5.12-2.05q3.02 0 5.01 2.03zm-8.34 10.07a4.4 4.4 0 0 0 3.23 1.28 4.3 4.3 0 0 0 3.2-1.28 4.4 4.4 0 0 0 1.26-3.23 4.35 4.35 0 0 0-4.47-4.48q-1.27 0-2.3.58-1.03.59-1.61 1.61a4.6 4.6 0 0 0-.58 2.3 4.2 4.2 0 0 0 1.27 3.22m23.18-10.4q2.02 0 3.66.93a6.6 6.6 0 0 1 2.54 2.58q.91 1.65.91 3.68 0 3.1-2.02 5.15a7 7 0 0 1-5.09 2.05 6.7 6.7 0 0 1-4.55-1.65v6.25h-2.82V4.08h1.91l.53 1.68a6.6 6.6 0 0 1 4.93-2.02m-3.43 10.4a4.3 4.3 0 0 0 3.21 1.28 4.34 4.34 0 0 0 4.48-4.49 4.35 4.35 0 0 0-4.47-4.49 4.6 4.6 0 0 0-2.31.58q-1.04.59-1.61 1.61a5 5 0 0 0-.57 2.3q0 1.93 1.27 3.21M78.02 4.07h2.18v13.72h-2.29l-.28-1.68a6.7 6.7 0 0 1-4.95 2.01 7.03 7.03 0 0 1-7.17-7.21q0-3.09 2.05-5.13a7 7 0 0 1 5.12-2.05q3.02 0 5.01 2.03zm-8.34 10.07a4.4 4.4 0 0 0 3.23 1.28 4.3 4.3 0 0 0 3.2-1.28 4.4 4.4 0 0 0 1.26-3.23 4.35 4.35 0 0 0-4.47-4.48q-1.27 0-2.3.58-1.03.59-1.61 1.61a4.6 4.6 0 0 0-.58 2.3 4.2 4.2 0 0 0 1.27 3.22"/></svg>