<svg xmlns="http://www.w3.org/2000/svg" width="119" height="36" viewBox="0 0 119 36"><path d="M100.64 34.4H18.32c-8.83 0-15.99-7.16-15.99-15.99 0-8.83 7.16-15.99 15.99-15.99h82.32c8.83 0 15.99 7.16 15.99 15.99 0 8.83-7.16 15.99-15.99 15.99z"/><path d="M100.64 34.9H18.32c-9.09 0-16.49-7.4-16.49-16.49S9.23 1.93 18.32 1.93h82.32c9.09 0 16.49 7.4 16.49 16.49s-7.4 16.48-16.49 16.48zM18.32 2.93c-8.54 0-15.49 6.95-15.49 15.49S9.79 33.9 18.32 33.9h82.32c8.54 0 15.49-6.95 15.49-15.49s-6.95-15.49-15.49-15.49H18.32z"/><path fill="#fff" d="M101.53 32.64H17.34c-8.76 0-15.87-7.1-15.87-15.87C1.47 8 8.58.9 17.34.9h84.19c8.76 0 15.87 7.1 15.87 15.87 0 8.76-7.11 15.87-15.87 15.87z"/><path d="M101.53 32.89H17.34c-8.89 0-16.12-7.23-16.12-16.12S8.45.65 17.34.65h84.19c8.89 0 16.12 7.23 16.12 16.12s-7.23 16.12-16.12 16.12zM17.34 1.15c-8.61 0-15.62 7.01-15.62 15.62 0 8.61 7.01 15.62 15.62 15.62h84.19c8.61 0 15.62-7.01 15.62-15.62 0-8.61-7.01-15.62-15.62-15.62H17.34z"/></svg>
